{"glyphs":{":":{"x_min":0,"x_max":600,"ha":600,"o":"m 296 516 q 321 516 338 499 q 355 482 355 458 q 355 434 338 417 q 321 400 296 400 q 271 400 255 417 q 238 434 238 458 q 238 482 255 499 q 271 516 296 516 z m 296 108 q 321 108 338 91 q 355 75 355 50 q 355 25 338 9 q 321 -8 296 -8 q 271 -8 255 9 q 238 25 238 50 q 238 75 255 91 q 271 108 296 108 z"},"$":{"x_min":0,"x_max":600,"ha":600,"o":"m 333 395 q 425 355 462 307 q 499 259 499 198 q 499 121 455 67 q 411 13 333 -6 l 333 -69 l 276 -69 l 276 -13 l 272 -13 q 183 -13 116 22 l 133 91 q 211 55 270 55 l 276 55 l 276 340 q 171 385 141 428 q 111 472 111 521 q 111 590 154 637 q 198 684 276 698 l 276 750 l 333 750 l 333 702 q 400 702 465 681 l 447 613 q 387 634 333 634 z m 276 422 l 276 627 q 189 604 189 524 q 189 465 276 422 z m 333 64 q 421 96 421 188 q 421 229 400 258 q 379 287 333 312 z"},"?":{"x_min":0,"x_max":600,"ha":600,"o":"m 117 663 q 204 702 272 702 q 364 702 415 661 q 465 619 465 538 q 465 454 356 364 q 309 325 298 312 q 288 299 281 280 q 275 262 275 234 l 275 207 l 208 207 l 208 235 q 208 320 262 367 l 327 424 q 358 450 373 477 q 387 504 387 535 q 387 586 355 613 q 323 640 267 640 q 217 640 140 604 z m 250 112 q 276 112 293 94 q 311 77 311 51 q 311 24 293 6 q 275 -13 250 -13 q 225 -13 208 6 q 190 24 190 51 q 190 77 207 94 q 225 112 250 112 z"},"<":{"x_min":0,"x_max":600,"ha":600,"o":"m 476 105 l 111 324 l 111 383 l 476 600 l 476 530 l 183 351 l 476 177 z"},"'":{"x_min":0,"x_max":600,"ha":600,"o":"m 338 572 l 320 435 l 281 435 l 263 572 l 263 689 l 338 689 z"},"=":{"x_min":0,"x_max":600,"ha":600,"o":"m 531 419 l 69 419 l 69 483 l 531 483 z m 531 223 l 69 223 l 69 287 l 531 287 z"},"a":{"x_min":0,"x_max":600,"ha":600,"o":"m 510 0 l 434 0 q 425 31 425 82 q 360 -13 248 -13 q 191 -13 148 27 q 105 67 105 131 q 105 168 120 197 q 135 226 165 246 q 194 266 236 277 q 278 289 335 293 l 421 300 l 421 324 q 421 455 299 455 q 270 455 226 443 q 182 430 150 413 l 130 468 q 234 521 323 521 q 497 521 497 337 l 497 118 q 497 52 510 0 z m 421 151 l 421 243 q 318 234 280 226 q 241 218 213 196 q 185 174 185 136 q 185 102 209 81 q 233 60 270 60 q 311 60 351 84 q 391 108 421 151 z"},"L":{"x_min":0,"x_max":600,"ha":600,"o":"m 500 0 l 125 0 l 125 689 l 205 689 l 205 70 l 500 70 z"},"3":{"x_min":0,"x_max":600,"ha":600,"o":"m 343 370 q 406 353 444 306 q 482 259 482 201 q 482 110 411 49 q 340 -13 244 -13 q 162 -13 97 23 l 113 89 q 181 57 247 57 q 310 57 354 96 q 398 135 398 196 q 398 256 351 293 q 303 331 225 331 l 204 331 l 204 397 l 210 397 q 285 397 334 432 q 383 468 383 528 q 383 577 348 604 q 312 632 251 632 q 198 632 132 603 l 121 672 q 188 702 255 702 q 347 702 407 654 q 467 605 467 529 q 467 476 430 430 q 394 385 343 373 z"},";":{"x_min":0,"x_max":600,"ha":600,"o":"m 300 516 q 325 516 342 499 q 359 482 359 458 q 359 433 342 417 q 325 400 300 400 q 275 400 259 417 q 242 434 242 458 q 242 482 259 499 q 275 516 300 516 z m 301 -13 q 275 -10 259 8 q 242 26 242 49 q 242 74 258 91 q 274 108 299 108 q 326 108 346 86 q 366 63 366 32 q 366 -63 260 -117 l 241 -82 q 301 -53 301 -13 z"},"J":{"x_min":0,"x_max":600,"ha":600,"o":"m 423 183 q 423 88 373 38 q 324 -13 228 -13 q 145 -13 76 22 l 100 86 q 158 57 228 57 q 289 57 316 89 q 343 121 343 189 l 343 689 l 423 689 z"},"V":{"x_min":0,"x_max":600,"ha":600,"o":"m 572 689 l 347 0 l 251 0 l 26 689 l 110 689 l 299 93 l 489 689 z"},"\"":{"x_min":0,"x_max":600,"ha":600,"o":"m 426 572 l 408 435 l 369 435 l 351 572 l 351 689 l 426 689 z m 249 572 l 231 435 l 192 435 l 174 572 l 174 689 l 249 689 z"},"7":{"x_min":0,"x_max":600,"ha":600,"o":"m 506 632 l 233 0 l 151 0 l 420 619 l 97 619 l 97 689 l 506 689 z"},"S":{"x_min":0,"x_max":600,"ha":600,"o":"m 447 613 q 385 634 330 634 q 268 634 228 605 q 189 577 189 524 q 189 461 292 414 q 368 379 393 365 q 417 352 443 328 q 468 304 484 271 q 499 239 499 198 q 499 98 431 42 q 364 -13 272 -13 q 183 -13 116 22 l 133 91 q 211 55 270 55 q 338 55 380 91 q 421 126 421 188 q 421 234 394 266 q 367 298 295 331 q 221 365 199 378 q 177 390 156 412 q 134 434 123 461 q 111 489 111 521 q 111 606 172 654 q 234 702 328 702 q 397 702 465 681 z"},"}":{"x_min":0,"x_max":600,"ha":600,"o":"m 423 221 q 370 221 346 185 q 322 149 322 58 l 322 11 q 322 -91 291 -129 q 260 -167 190 -167 l 151 -167 l 151 -103 l 166 -103 q 211 -103 229 -83 q 247 -64 247 10 l 247 41 q 247 142 271 190 q 294 238 350 261 q 294 284 271 332 q 247 380 247 481 l 247 512 q 247 586 229 605 q 211 625 166 625 l 151 625 l 151 689 l 190 689 q 260 689 291 651 q 322 613 322 511 l 322 464 q 322 381 343 341 q 365 301 423 301 z"},"Z":{"x_min":0,"x_max":600,"ha":600,"o":"m 508 632 l 180 70 l 502 70 l 502 0 l 89 0 l 89 56 l 415 619 l 103 619 l 103 689 l 508 689 z"},"x":{"x_min":0,"x_max":600,"ha":600,"o":"m 515 0 l 429 0 l 293 199 l 152 0 l 71 0 l 252 255 l 71 509 l 158 509 l 295 311 l 434 509 l 515 509 l 335 258 z"},")":{"x_min":0,"x_max":600,"ha":600,"o":"m 162 701 q 271 619 328 510 q 385 401 385 279 q 385 157 328 48 q 271 -62 162 -144 l 132 -102 q 221 -23 260 66 q 300 155 300 280 q 300 408 259 495 q 219 581 132 659 z"},"&":{"x_min":0,"x_max":600,"ha":600,"o":"m 599 4 q 578 -5 546 -5 q 520 -5 495 13 q 469 32 429 85 q 353 -13 245 -13 q 159 -13 99 42 q 39 97 39 178 q 39 230 70 277 q 102 324 187 383 q 106 478 106 549 q 106 617 151 660 q 196 702 265 702 q 329 702 371 666 q 412 629 412 565 q 412 519 384 476 q 355 434 278 377 l 422 199 q 455 284 471 317 q 488 351 518 375 q 547 399 594 399 l 598 399 l 598 332 l 594 332 q 564 332 537 300 q 510 269 465 145 q 501 101 522 82 q 542 63 568 63 q 580 63 599 66 z m 242 423 q 300 463 323 494 q 345 524 345 559 q 345 597 322 617 q 299 636 266 636 q 228 636 202 613 q 177 590 177 549 q 177 496 242 423 z m 388 135 l 224 337 q 167 295 143 260 q 119 224 119 181 q 119 127 157 91 q 195 54 247 54 q 329 54 388 135 z"},"_":{"x_min":0,"x_max":600,"ha":600,"o":"m 600 -218 l 0 -218 l 0 -154 l 600 -154 z"},"v":{"x_min":0,"x_max":600,"ha":600,"o":"m 520 509 l 327 0 l 258 0 l 66 509 l 149 509 l 293 104 l 437 509 z"},"O":{"x_min":0,"x_max":600,"ha":600,"o":"m 299 702 q 415 702 475 611 q 536 519 536 344 q 536 170 476 79 q 415 -13 299 -13 q 184 -13 123 78 q 62 170 62 344 q 62 519 123 610 q 183 702 299 702 z m 299 57 q 451 57 451 344 q 451 632 299 632 q 225 632 186 557 q 147 483 147 344 q 147 204 186 131 q 224 57 299 57 z"},"(":{"x_min":0,"x_max":600,"ha":600,"o":"m 468 -102 l 438 -144 q 329 -62 272 48 q 215 157 215 279 q 215 401 271 510 q 328 619 438 701 l 468 659 q 378 579 339 491 q 300 404 300 280 q 300 151 341 64 q 381 -24 468 -102 z"},"C":{"x_min":0,"x_max":600,"ha":600,"o":"m 523 43 q 442 -13 335 -13 q 201 -13 132 79 q 62 170 62 344 q 62 512 129 607 q 197 702 335 702 q 385 702 434 689 q 482 677 512 656 l 486 593 q 417 632 335 632 q 240 632 193 563 q 147 494 147 344 q 147 57 335 57 q 415 57 498 106 z"},"W":{"x_min":0,"x_max":600,"ha":600,"o":"m 579 689 l 491 0 l 417 0 l 300 388 l 183 0 l 107 0 l 21 689 l 100 689 l 158 129 l 260 468 l 340 468 l 442 128 l 501 689 z"},"A":{"x_min":0,"x_max":600,"ha":600,"o":"m 574 0 l 490 0 l 414 241 l 188 241 l 111 0 l 28 0 l 253 689 l 349 689 z m 391 311 l 301 596 l 211 311 z"},"f":{"x_min":0,"x_max":600,"ha":600,"o":"m 502 681 l 482 619 q 428 635 385 635 q 344 635 328 612 q 313 588 313 518 l 313 509 l 484 509 l 484 443 l 313 443 l 313 0 l 237 0 l 237 443 l 109 443 l 109 509 l 237 509 l 237 526 q 237 623 270 662 q 303 701 385 701 q 438 701 502 681 z"},"Q":{"x_min":0,"x_max":600,"ha":600,"o":"m 554 -114 q 512 -127 470 -127 q 363 -127 331 -10 q 312 -13 299 -13 q 184 -13 123 78 q 62 170 62 344 q 62 519 123 610 q 183 702 299 702 q 415 702 475 611 q 536 519 536 344 q 536 90 409 14 q 427 -57 478 -57 q 506 -57 540 -50 z m 299 57 q 451 57 451 344 q 451 632 299 632 q 225 632 186 557 q 147 483 147 344 q 147 204 186 131 q 224 57 299 57 z"},"w":{"x_min":0,"x_max":600,"ha":600,"o":"m 557 509 l 484 0 l 426 0 l 306 288 l 186 0 l 128 0 l 56 509 l 132 509 q 172 152 174 135 l 267 356 l 345 356 l 438 136 l 479 509 z"},"-":{"x_min":0,"x_max":600,"ha":600,"o":"m 440 238 l 150 238 l 150 312 l 440 312 z"},"E":{"x_min":0,"x_max":600,"ha":600,"o":"m 485 0 l 125 0 l 125 689 l 482 689 l 482 619 l 205 619 l 205 406 l 471 406 l 471 336 l 205 336 l 205 70 l 485 70 z"},"s":{"x_min":0,"x_max":600,"ha":600,"o":"m 444 436 q 380 457 323 457 q 261 457 225 436 q 189 416 189 381 q 189 359 206 343 q 222 326 272 312 l 345 291 q 395 277 427 257 q 458 237 474 209 q 490 181 490 144 q 490 71 429 29 q 368 -13 274 -13 q 180 -13 119 15 l 134 81 q 198 51 271 51 q 334 51 374 74 q 414 98 414 137 q 414 164 394 184 q 375 205 301 228 q 242 246 214 255 q 187 264 163 281 q 139 299 126 323 q 114 348 114 378 q 114 444 171 482 q 229 521 324 521 q 386 521 461 500 z"},">":{"x_min":0,"x_max":600,"ha":600,"o":"m 495 324 l 130 105 l 130 177 l 423 351 l 130 530 l 130 600 l 495 383 z"},"l":{"x_min":0,"x_max":600,"ha":600,"o":"m 460 0 l 252 0 l 252 623 l 119 623 l 119 689 l 328 689 l 328 66 l 460 66 z"},"8":{"x_min":0,"x_max":600,"ha":600,"o":"m 369 378 q 439 357 478 308 q 517 259 517 193 q 517 98 454 42 q 392 -13 300 -13 q 204 -13 142 43 q 80 99 80 192 q 80 257 120 307 q 160 357 232 378 q 175 393 140 434 q 106 476 106 528 q 106 594 159 648 q 211 702 298 702 q 383 702 439 648 q 495 595 495 528 q 495 478 460 435 q 425 393 369 378 z m 298 411 q 300 411 321 417 q 342 423 357 431 q 372 440 385 453 q 397 466 405 484 q 413 502 413 524 q 413 571 379 602 q 346 633 298 633 q 251 633 218 601 q 185 569 185 524 q 185 495 197 474 q 209 452 227 439 q 245 426 268 418 q 291 411 298 411 z m 298 343 q 164 304 164 196 q 164 133 205 95 q 245 57 300 57 q 356 57 395 94 q 434 132 434 196 q 434 244 407 282 q 380 321 298 343 z"},"\\":{"x_min":0,"x_max":600,"ha":600,"o":"m 475 -13 l 403 -13 l 104 702 l 177 702 z"},"e":{"x_min":0,"x_max":600,"ha":600,"o":"m 512 252 l 163 252 q 163 166 213 109 q 263 53 336 53 q 405 53 479 78 l 492 17 q 425 -13 335 -13 q 222 -13 152 60 q 83 132 83 256 q 83 377 145 449 q 208 521 306 521 q 394 521 453 454 q 512 387 512 276 z m 429 314 q 429 374 392 414 q 355 455 309 455 q 250 455 211 416 q 172 377 168 314 z"},"b":{"x_min":0,"x_max":600,"ha":600,"o":"m 181 443 q 207 478 250 500 q 293 521 341 521 q 430 521 479 450 q 529 378 529 262 q 529 145 476 66 q 423 -13 335 -13 q 288 -13 246 10 q 205 34 181 73 l 181 0 l 105 0 l 105 689 l 181 689 z m 181 367 l 181 156 q 203 113 239 84 q 276 55 315 55 q 376 55 413 114 q 449 172 449 258 q 449 346 415 400 q 380 455 318 455 q 237 455 181 367 z"},"%":{"x_min":0,"x_max":600,"ha":600,"o":"m 161 702 q 226 702 262 657 q 299 611 299 539 q 299 467 262 421 q 226 376 161 376 q 97 376 60 422 q 23 467 23 539 q 23 609 60 656 q 98 702 161 702 z m 161 435 q 229 435 229 539 q 229 643 161 643 q 93 643 93 539 q 93 435 161 435 z m 514 689 l 150 0 l 82 0 l 446 689 z m 438 313 q 503 313 540 268 q 576 223 576 150 q 576 78 539 32 q 502 -13 438 -13 q 374 -13 337 33 q 300 79 300 150 q 300 221 337 267 q 375 313 438 313 z m 438 46 q 506 46 506 150 q 506 254 438 254 q 370 254 370 150 q 370 46 438 46 z"},"m":{"x_min":0,"x_max":600,"ha":600,"o":"m 537 0 l 461 0 l 461 334 q 461 455 416 455 q 393 455 365 413 q 338 372 338 367 l 338 0 l 262 0 l 262 334 q 262 455 217 455 q 194 455 167 413 q 139 372 139 367 l 139 0 l 63 0 l 63 509 l 136 509 l 136 432 q 158 473 187 497 q 217 521 246 521 q 277 521 301 497 q 326 473 335 432 q 356 473 386 497 q 416 521 445 521 q 537 521 537 356 z"},"#":{"x_min":0,"x_max":600,"ha":600,"o":"m 560 194 l 405 194 l 364 0 l 295 0 l 336 194 l 205 194 l 164 0 l 95 0 l 136 194 l 43 194 l 43 258 l 150 258 l 187 433 l 43 433 l 43 497 l 200 497 l 241 689 l 310 689 l 269 497 l 400 497 l 441 689 l 510 689 l 469 497 l 560 497 l 560 433 l 456 433 l 419 258 l 560 258 z m 387 433 l 256 433 l 219 258 l 350 258 z"},",":{"x_min":0,"x_max":600,"ha":600,"o":"m 301 -13 q 275 -10 259 8 q 242 26 242 49 q 242 74 258 91 q 274 108 299 108 q 326 108 346 86 q 366 63 366 32 q 366 -63 260 -117 l 241 -82 q 301 -53 301 -13 z"},"n":{"x_min":0,"x_max":600,"ha":600,"o":"m 497 0 l 421 0 l 421 326 q 421 394 399 425 q 377 455 331 455 q 261 455 181 368 l 181 0 l 105 0 l 105 509 l 181 509 l 181 434 q 263 521 354 521 q 497 521 497 348 z"},"h":{"x_min":0,"x_max":600,"ha":600,"o":"m 497 0 l 421 0 l 421 326 q 421 394 399 425 q 377 455 331 455 q 261 455 181 368 l 181 0 l 105 0 l 105 689 l 181 689 l 181 434 q 263 521 354 521 q 497 521 497 348 z"},"z":{"x_min":0,"x_max":600,"ha":600,"o":"m 490 0 l 99 0 l 99 41 l 389 442 l 106 442 l 106 509 l 490 509 l 490 471 l 200 67 l 490 67 z"},"B":{"x_min":0,"x_max":600,"ha":600,"o":"m 383 378 q 452 362 491 315 q 530 269 530 205 q 530 111 462 56 q 394 0 298 0 l 102 0 l 102 689 l 293 689 q 393 689 449 645 q 505 602 505 522 q 505 473 472 435 q 440 397 383 380 z m 182 415 l 276 415 q 423 415 423 520 q 423 568 387 594 q 351 619 281 619 l 182 619 z m 182 70 l 273 70 q 353 70 399 106 q 446 142 446 205 q 446 272 400 309 q 354 345 267 345 l 182 345 z"},"K":{"x_min":0,"x_max":600,"ha":600,"o":"m 589 0 l 488 0 l 255 338 l 182 259 l 182 0 l 102 0 l 102 689 l 182 689 l 182 359 l 488 689 l 580 689 l 311 398 z"},"R":{"x_min":0,"x_max":600,"ha":600,"o":"m 573 0 l 473 0 l 271 313 l 182 313 l 182 0 l 102 0 l 102 689 l 297 689 q 395 689 452 641 q 509 594 509 509 q 509 446 467 397 q 426 348 353 330 z m 182 383 l 283 383 q 347 383 386 417 q 426 452 426 504 q 426 619 285 619 l 182 619 z"},"T":{"x_min":0,"x_max":600,"ha":600,"o":"m 553 624 l 341 624 l 341 0 l 261 0 l 261 624 l 48 624 l 48 689 l 553 689 z"},"P":{"x_min":0,"x_max":600,"ha":600,"o":"m 125 689 l 300 689 q 399 689 458 639 q 518 589 518 502 q 518 414 459 362 q 399 309 303 309 l 205 309 l 205 0 l 125 0 z m 205 379 l 292 379 q 433 379 433 497 q 433 552 395 585 q 356 619 296 619 l 205 619 z"},"|":{"x_min":0,"x_max":600,"ha":600,"o":"m 335 -187 l 260 -187 l 260 689 l 335 689 z"},"t":{"x_min":0,"x_max":600,"ha":600,"o":"m 502 23 q 425 -12 351 -12 q 215 -12 215 132 l 215 443 l 117 443 l 117 509 l 215 509 l 215 648 l 289 648 l 289 509 l 462 509 l 462 443 l 289 443 l 289 152 q 289 105 310 80 q 330 54 365 54 q 428 54 489 82 z"},"M":{"x_min":0,"x_max":600,"ha":600,"o":"m 522 0 l 445 0 l 445 591 l 341 308 l 265 308 l 161 591 l 161 0 l 84 0 l 84 689 l 188 689 l 303 375 l 418 689 l 522 689 z"},"g":{"x_min":0,"x_max":600,"ha":600,"o":"m 246 192 q 175 157 175 131 q 175 117 191 107 q 208 97 236 97 l 407 102 q 468 102 502 72 q 536 42 536 -12 q 536 -99 459 -150 q 382 -201 279 -201 q 194 -201 141 -166 q 87 -130 87 -74 q 87 -13 170 29 q 101 61 101 108 q 101 162 190 208 q 149 233 127 272 q 105 312 105 356 q 105 428 154 474 q 203 520 276 520 q 329 520 371 498 l 522 521 l 522 447 l 425 447 q 447 408 447 356 q 447 287 398 239 q 350 191 276 191 q 260 191 246 192 z m 276 250 q 318 250 344 279 q 371 308 371 355 q 371 404 345 432 q 319 460 276 460 q 235 460 208 431 q 180 402 180 355 q 180 309 208 280 q 235 250 276 250 z m 279 -142 q 354 -142 407 -109 q 460 -75 460 -26 q 460 25 385 25 q 360 25 299 22 q 260 20 238 20 q 228 20 205 2 q 182 -15 170 -33 q 158 -51 158 -70 q 158 -100 191 -121 q 225 -142 279 -142 z"},"j":{"x_min":0,"x_max":600,"ha":600,"o":"m 333 701 q 354 701 370 686 q 385 670 385 649 q 385 626 370 611 q 355 596 333 596 q 313 596 298 612 q 282 628 282 649 q 282 670 298 686 q 313 701 333 701 z m 370 -26 q 370 -122 337 -161 q 304 -201 222 -201 q 169 -201 105 -181 l 125 -119 q 179 -135 222 -135 q 263 -135 279 -112 q 294 -88 294 -18 l 294 443 l 144 443 l 144 509 l 370 509 z"},"i":{"x_min":0,"x_max":600,"ha":600,"o":"m 333 701 q 354 701 370 686 q 385 670 385 649 q 385 626 370 611 q 355 596 333 596 q 313 596 298 612 q 282 628 282 649 q 282 670 298 686 q 313 701 333 701 z m 370 0 l 294 0 l 294 443 l 144 443 l 144 509 l 370 509 z"},"y":{"x_min":0,"x_max":600,"ha":600,"o":"m 520 509 l 327 0 q 285 -112 244 -157 q 203 -201 150 -201 q 103 -201 57 -184 l 70 -123 q 107 -135 136 -135 q 177 -135 204 -103 q 230 -71 257 1 l 66 509 l 149 509 l 293 103 l 437 509 z"},"@":{"x_min":0,"x_max":600,"ha":600,"o":"m 473 -38 q 399 -79 314 -79 q 196 -79 122 17 q 48 114 48 277 q 48 473 121 585 q 194 698 312 698 q 421 698 490 609 q 559 520 559 369 q 559 256 514 183 q 469 109 397 109 q 348 109 334 167 q 306 109 255 109 q 218 109 193 148 q 168 187 168 250 q 168 349 210 415 q 252 481 315 481 q 339 481 365 463 l 367 475 l 428 475 q 399 212 399 193 q 399 180 405 171 q 410 162 419 162 q 452 162 479 220 q 506 279 506 369 q 506 498 453 573 q 400 648 312 648 q 217 648 159 549 q 101 450 101 277 q 101 138 160 55 q 219 -28 314 -28 q 393 -28 462 6 z m 358 410 q 343 428 318 428 q 278 428 254 381 q 230 334 230 257 q 230 212 242 187 q 254 162 273 162 q 301 162 319 189 q 337 216 338 227 z"},".":{"x_min":0,"x_max":600,"ha":600,"o":"m 297 112 q 323 112 340 94 q 358 77 358 51 q 358 24 340 6 q 322 -13 297 -13 q 272 -13 254 6 q 237 24 237 51 q 237 77 254 94 q 271 112 297 112 z"},"p":{"x_min":0,"x_max":600,"ha":600,"o":"m 181 443 q 207 478 250 500 q 293 521 341 521 q 429 521 479 448 q 529 376 529 260 q 529 143 476 65 q 424 -13 335 -13 q 288 -13 246 10 q 205 34 181 73 l 181 -201 l 105 -201 l 105 509 l 181 509 z m 181 367 l 181 156 q 203 113 239 84 q 276 55 315 55 q 376 55 413 113 q 449 170 449 256 q 449 344 415 399 q 380 455 318 455 q 237 455 181 367 z"},"X":{"x_min":0,"x_max":600,"ha":600,"o":"m 568 0 l 479 0 l 304 282 l 131 0 l 42 0 l 262 351 l 43 689 l 135 689 l 304 416 l 475 689 l 563 689 l 347 351 z"},"*":{"x_min":0,"x_max":600,"ha":600,"o":"m 472 419 l 443 370 l 327 447 l 327 307 l 273 307 l 273 447 l 156 369 l 127 419 l 250 499 l 127 579 l 156 628 l 273 550 l 273 689 l 327 689 l 327 551 l 443 628 l 472 579 l 351 499 z"},"Y":{"x_min":0,"x_max":600,"ha":600,"o":"m 556 689 l 341 295 l 341 0 l 261 0 l 261 295 l 46 689 l 136 689 l 301 379 l 466 689 z"},"c":{"x_min":0,"x_max":600,"ha":600,"o":"m 495 17 q 429 -13 349 -13 q 229 -13 157 60 q 86 133 86 254 q 86 375 158 448 q 230 521 347 521 q 424 521 493 494 l 473 431 q 404 455 348 455 q 264 455 215 401 q 166 347 166 254 q 166 169 217 111 q 268 53 349 53 q 414 53 482 78 z"},"!":{"x_min":0,"x_max":600,"ha":600,"o":"m 336 465 l 313 207 l 271 207 l 248 465 l 248 689 l 336 689 z m 294 112 q 320 112 337 94 q 355 77 355 51 q 355 25 337 6 q 319 -13 294 -13 q 269 -13 251 6 q 234 24 234 51 q 234 77 251 94 q 269 112 294 112 z"},"/":{"x_min":0,"x_max":600,"ha":600,"o":"m 476 702 l 177 -13 l 105 -13 l 403 702 z"},"[":{"x_min":0,"x_max":600,"ha":600,"o":"m 445 -132 l 255 -132 l 255 689 l 445 689 l 445 622 l 331 622 l 331 -66 l 445 -66 z"},"6":{"x_min":0,"x_max":600,"ha":600,"o":"m 177 359 q 241 411 317 411 q 404 411 463 355 q 521 299 521 211 q 521 114 469 50 q 417 -13 331 -13 q 221 -13 156 88 q 92 189 92 336 q 92 492 159 597 q 226 702 343 702 q 423 702 482 678 l 469 607 q 401 632 345 632 q 266 632 221 556 q 177 479 177 359 z m 179 290 q 179 202 221 129 q 262 57 325 57 q 378 57 407 96 q 436 135 436 204 q 436 268 404 304 q 373 341 315 341 q 240 341 179 290 z"},"r":{"x_min":0,"x_max":600,"ha":600,"o":"m 505 495 l 474 422 q 424 444 387 444 q 354 444 321 425 q 289 405 262 369 q 235 333 235 329 l 235 0 l 159 0 l 159 509 l 235 509 l 235 406 q 296 521 393 521 q 451 521 505 495 z"},"2":{"x_min":0,"x_max":600,"ha":600,"o":"m 479 0 l 100 0 l 100 58 q 244 219 287 273 q 330 328 357 388 q 384 448 384 508 q 384 565 349 599 q 314 632 251 632 q 203 632 121 602 l 110 671 q 184 702 264 702 q 356 702 413 650 q 469 598 469 511 q 469 449 440 388 q 411 327 366 271 q 320 215 189 70 l 479 70 z"},"{":{"x_min":0,"x_max":600,"ha":600,"o":"m 447 -167 l 408 -167 q 338 -167 307 -129 q 276 -91 276 11 l 276 58 q 276 149 252 185 q 228 221 175 221 l 175 301 q 228 301 252 337 q 276 373 276 464 l 276 511 q 276 613 307 651 q 338 689 408 689 l 447 689 l 447 625 l 432 625 q 387 625 369 605 q 351 586 351 512 l 351 481 q 351 380 328 332 q 304 284 248 261 q 304 238 328 190 q 351 142 351 41 l 351 10 q 351 -64 369 -83 q 387 -103 432 -103 l 447 -103 z"},"9":{"x_min":0,"x_max":600,"ha":600,"o":"m 431 331 q 372 279 291 279 q 204 279 145 335 q 87 391 87 479 q 87 574 143 638 q 199 703 287 703 q 395 703 456 604 q 516 506 516 354 q 516 202 445 95 q 374 -12 255 -12 q 175 -12 116 12 l 129 83 q 196 58 253 58 q 334 58 383 137 q 431 215 431 331 z m 429 400 q 429 493 392 563 q 354 633 293 633 q 238 633 205 592 q 172 551 172 486 q 172 426 205 387 q 239 349 293 349 q 368 349 423 395 z"}," ":{"x_min":0,"x_max":600,"ha":600,"o":""},"I":{"x_min":0,"x_max":600,"ha":600,"o":"m 453 0 l 140 0 l 140 70 l 259 70 l 259 619 l 140 619 l 140 689 l 453 689 l 453 619 l 339 619 l 339 70 l 453 70 z"},"H":{"x_min":0,"x_max":600,"ha":600,"o":"m 498 0 l 418 0 l 418 342 l 182 342 l 182 0 l 102 0 l 102 689 l 182 689 l 182 412 l 418 412 l 418 689 l 498 689 z"},"4":{"x_min":0,"x_max":600,"ha":600,"o":"m 524 159 l 439 159 l 439 0 l 359 0 l 359 159 l 59 159 l 59 220 l 331 689 l 439 689 l 439 229 l 524 229 z m 359 229 l 359 610 l 140 229 z"},"~":{"x_min":0,"x_max":600,"ha":600,"o":"m 564 250 q 488 186 418 186 q 377 186 293 224 q 207 262 171 262 q 114 262 29 195 l 29 265 q 106 329 178 329 q 220 329 304 291 q 388 253 424 253 q 481 253 564 320 z"},"D":{"x_min":0,"x_max":600,"ha":600,"o":"m 102 689 l 238 689 q 373 689 455 597 q 536 505 536 344 q 536 180 453 90 q 371 0 241 0 l 102 0 z m 182 70 l 239 70 q 337 70 394 143 q 451 215 451 344 q 451 472 394 546 q 336 619 239 619 l 182 619 z"},"^":{"x_min":0,"x_max":600,"ha":600,"o":"m 549 385 l 479 385 l 300 678 l 126 385 l 54 385 l 273 750 l 332 750 z"},"0":{"x_min":0,"x_max":600,"ha":600,"o":"m 299 702 q 408 702 467 608 q 526 514 526 344 q 526 180 469 83 q 412 -13 299 -13 q 190 -13 131 81 q 72 174 72 344 q 72 509 129 606 q 187 702 299 702 z m 299 57 q 371 57 406 126 q 441 194 441 344 q 441 495 406 563 q 371 631 299 631 q 228 631 192 561 q 157 491 157 344 q 157 195 192 126 q 227 57 299 57 z m 297 417 q 328 417 349 396 q 370 375 370 344 q 370 312 349 290 q 327 267 297 267 q 267 267 246 290 q 225 312 225 344 q 225 375 245 396 q 266 417 297 417 z"},"F":{"x_min":0,"x_max":600,"ha":600,"o":"m 490 619 l 205 619 l 205 394 l 465 394 l 465 324 l 205 324 l 205 0 l 125 0 l 125 689 l 490 689 z"},"`":{"x_min":0,"x_max":600,"ha":600,"o":"m 377 569 l 322 569 l 170 716 l 280 716 z"},"k":{"x_min":0,"x_max":600,"ha":600,"o":"m 547 0 l 447 0 l 231 253 l 181 210 l 181 0 l 105 0 l 105 689 l 181 689 l 181 294 l 420 509 l 517 509 l 285 301 z"},"u":{"x_min":0,"x_max":600,"ha":600,"o":"m 496 0 l 420 0 l 420 75 q 338 -12 247 -12 q 104 -12 104 161 l 104 509 l 180 509 l 180 183 q 180 118 201 86 q 221 54 270 54 q 340 54 420 141 l 420 509 l 496 509 z"},"]":{"x_min":0,"x_max":600,"ha":600,"o":"m 331 -130 l 136 -130 l 136 -64 l 255 -64 l 255 623 l 136 623 l 136 689 l 331 689 z"},"U":{"x_min":0,"x_max":600,"ha":600,"o":"m 498 217 q 498 97 449 42 q 401 -13 302 -13 q 102 -13 102 215 l 102 689 l 182 689 l 182 222 q 182 57 302 57 q 362 57 390 96 q 418 135 418 223 l 418 689 l 498 689 z"},"o":{"x_min":0,"x_max":600,"ha":600,"o":"m 300 521 q 405 521 467 448 q 529 375 529 255 q 529 134 467 61 q 405 -13 300 -13 q 194 -13 133 60 q 71 134 71 255 q 71 375 133 448 q 195 521 300 521 z m 300 53 q 369 53 409 112 q 449 170 449 254 q 449 342 410 398 q 370 455 300 455 q 229 455 190 399 q 151 343 151 254 q 151 169 190 111 q 230 53 300 53 z"},"N":{"x_min":0,"x_max":600,"ha":600,"o":"m 508 0 l 419 0 l 172 544 l 172 0 l 92 0 l 92 689 l 181 689 l 429 150 l 429 689 l 508 689 z"},"+":{"x_min":0,"x_max":600,"ha":600,"o":"m 531 321 l 333 321 l 333 121 l 269 121 l 269 321 l 69 321 l 69 385 l 269 385 l 269 585 l 333 585 l 333 385 l 531 385 z"},"G":{"x_min":0,"x_max":600,"ha":600,"o":"m 522 49 q 438 -13 335 -13 q 201 -13 131 78 q 62 169 62 344 q 62 514 129 608 q 196 702 335 702 q 385 702 434 689 q 482 677 512 656 l 486 593 q 417 632 335 632 q 240 632 194 562 q 147 493 147 344 q 147 57 335 57 q 406 57 442 87 l 442 257 l 318 257 l 318 326 l 522 326 z"},"q":{"x_min":0,"x_max":600,"ha":600,"o":"m 495 -201 l 419 -201 l 419 73 q 396 36 352 11 q 308 -13 260 -13 q 172 -13 122 63 q 71 140 71 259 q 71 373 124 447 q 176 521 264 521 q 360 521 419 443 l 419 509 l 495 509 z m 419 156 l 419 367 q 364 455 287 455 q 224 455 188 398 q 151 341 151 255 q 151 167 185 111 q 220 55 280 55 q 309 55 338 71 q 367 86 393 118 q 419 149 419 156 z"},"d":{"x_min":0,"x_max":600,"ha":600,"o":"m 495 0 l 419 0 l 419 73 q 396 36 352 11 q 308 -13 260 -13 q 172 -13 122 65 q 71 143 71 262 q 71 374 124 448 q 177 521 264 521 q 360 521 419 443 l 419 689 l 495 689 z m 419 156 l 419 367 q 364 455 287 455 q 224 455 188 399 q 151 343 151 258 q 151 170 185 113 q 220 55 280 55 q 309 55 338 71 q 367 86 393 118 q 419 149 419 156 z"},"1":{"x_min":0,"x_max":600,"ha":600,"o":"m 497 0 l 135 0 l 135 70 l 281 70 l 281 605 l 143 536 l 143 616 l 292 693 l 361 693 l 361 70 l 497 70 z"},"5":{"x_min":0,"x_max":600,"ha":600,"o":"m 212 411 q 245 420 277 420 q 375 420 431 360 q 488 300 488 211 q 488 117 422 52 q 356 -13 261 -13 q 171 -13 110 17 l 126 85 q 192 57 263 57 q 326 57 365 98 q 404 138 404 211 q 404 280 367 317 q 331 354 273 354 q 231 354 190 338 l 142 360 l 142 689 l 457 689 l 457 619 l 212 619 z"}}}
